<svg width="36" height="36" viewBox="0 0 36 36" fill="none" xmlns="http://www.w3.org/2000/svg">
<path fill-rule="evenodd" clip-rule="evenodd" d="M17.9483 0C8.02444 0 0.00195312 8.08163 0.00195312 18.0797C0.00195312 26.0717 5.14224 32.8368 12.2732 35.2311C13.1647 35.4111 13.4913 34.8421 13.4913 34.3635C13.4913 33.9443 13.4619 32.5076 13.4619 31.0107C8.46967 32.0885 7.43008 28.8555 7.43008 28.8555C6.62779 26.7601 5.43905 26.2216 5.43905 26.2216C3.8051 25.114 5.55808 25.114 5.55808 25.114C7.37057 25.2338 8.32163 26.9699 8.32163 26.9699C9.92583 29.7235 12.5109 28.9455 13.5508 28.4664C13.6992 27.299 14.1749 26.4909 14.68 26.042C10.6984 25.6228 6.50914 24.0664 6.50914 17.1217C6.50914 15.1461 7.22179 13.5298 8.35102 12.2727C8.17285 11.8238 7.54873 9.96759 8.52954 7.48322C8.52954 7.48322 10.0449 7.0042 13.4615 9.33906C14.9244 8.9433 16.4329 8.74198 17.9483 8.74028C19.4636 8.74028 21.0083 8.95004 22.4347 9.33906C25.8518 7.0042 27.3671 7.48322 27.3671 7.48322C28.3479 9.96759 27.7234 11.8238 27.5453 12.2727C28.7042 13.5298 29.3875 15.1461 29.3875 17.1217C29.3875 24.0664 25.1983 25.5927 21.1869 26.042C21.8407 26.6106 22.405 27.688 22.405 29.3944C22.405 31.8189 22.3756 33.7647 22.3756 34.3631C22.3756 34.8421 22.7025 35.4111 23.5937 35.2315C30.7246 32.8364 35.8649 26.0717 35.8649 18.0797C35.8943 8.08163 27.8424 0 17.9483 0Z" fill="white"/>
</svg>
