<svg width="12" height="12" viewBox="0 0 12 12" fill="none" xmlns="http://www.w3.org/2000/svg">
<path d="M8.57906 4.65596L7.10376 3.18066C6.98799 3.06495 6.831 2.99996 6.66732 3C6.50364 3.00004 6.34668 3.0651 6.23097 3.18086C6.11525 3.29663 6.05027 3.45362 6.05031 3.6173C6.05035 3.78099 6.1154 3.93795 6.23117 4.05366L7.23459 5.05707H3.61711C3.45344 5.05707 3.29648 5.12209 3.18075 5.23782C3.06502 5.35355 3 5.51051 3 5.67418C3 5.83785 3.06502 5.99481 3.18075 6.11054C3.29648 6.22627 3.45344 6.29129 3.61711 6.29129H7.23459L6.23117 7.2947C6.1154 7.41042 6.05035 7.56738 6.05031 7.73106C6.05027 7.89474 6.11525 8.05173 6.23097 8.1675C6.34668 8.28327 6.50364 8.34832 6.66732 8.34836C6.831 8.3484 6.98799 8.28342 7.10376 8.1677L8.57906 6.69241C8.84862 6.4221 9 6.05593 9 5.67418C9 5.29243 8.84862 4.92626 8.57906 4.65596Z" fill="#6F6D6D"/>
</svg>
