<svg width="16" height="16" viewBox="0 0 16 16" fill="none" xmlns="http://www.w3.org/2000/svg">
<rect width="8" height="1" rx="0.5" transform="matrix(1 0 0 -1 4 6)" fill="#373535"/>
<path d="M4.27602 12H11.724C11.8559 12 11.9847 11.9609 12.0943 11.8876C12.2039 11.8143 12.2894 11.7102 12.3398 11.5884C12.3903 11.4666 12.4035 11.3326 12.3777 11.2033C12.352 11.074 12.2886 10.9552 12.1954 10.862L8.47135 7.138C8.34634 7.01302 8.1768 6.94281 8.00002 6.94281C7.82325 6.94281 7.65371 7.01302 7.52869 7.138L3.80469 10.862C3.71148 10.9552 3.64801 11.074 3.6223 11.2033C3.59659 11.3326 3.60979 11.4666 3.66024 11.5884C3.71068 11.7102 3.79611 11.8143 3.90572 11.8876C4.01532 11.9609 4.14419 12 4.27602 12Z" fill="#373535"/>
</svg>
