<svg width="16" height="16" viewBox="0 0 16 16" fill="none" xmlns="http://www.w3.org/2000/svg">
<path d="M10.5 4.66652V12.1145C10.5 12.2464 10.4609 12.3752 10.3876 12.4848C10.3143 12.5944 10.2102 12.6799 10.0884 12.7303C9.96664 12.7808 9.83262 12.794 9.70331 12.7682C9.57401 12.7425 9.45524 12.6791 9.362 12.5859L5.638 8.86186C5.51302 8.73684 5.44281 8.5673 5.44281 8.39052C5.44281 8.21375 5.51302 8.04421 5.638 7.91919L9.362 4.19519C9.45524 4.10198 9.57401 4.03851 9.70331 4.0128C9.83262 3.98709 9.96664 4.00029 10.0884 4.05074C10.2102 4.10119 10.3143 4.18661 10.3876 4.29622C10.4609 4.40583 10.5 4.53469 10.5 4.66652Z" fill="#373535"/>
</svg>
