<svg width="16" height="16" viewBox="0 0 16 16" fill="none" xmlns="http://www.w3.org/2000/svg">
<path d="M5 4.3905C5.27614 4.3905 5.5 4.61436 5.5 4.8905L5.5 11.8905C5.5 12.1666 5.27614 12.3905 5 12.3905C4.72386 12.3905 4.5 12.1666 4.5 11.8905L4.5 4.8905C4.5 4.61436 4.72386 4.3905 5 4.3905Z" fill="#373535"/>
<path d="M11.5 4.66652V12.1145C11.5 12.2464 11.4609 12.3752 11.3876 12.4848C11.3143 12.5944 11.2102 12.6799 11.0884 12.7303C10.9666 12.7808 10.8326 12.794 10.7033 12.7682C10.574 12.7425 10.4552 12.6791 10.362 12.5859L6.638 8.86186C6.51302 8.73684 6.44281 8.5673 6.44281 8.39052C6.44281 8.21375 6.51302 8.04421 6.638 7.91919L10.362 4.19519C10.4552 4.10198 10.574 4.03851 10.7033 4.0128C10.8326 3.98709 10.9666 4.00029 11.0884 4.05074C11.2102 4.10119 11.3143 4.18661 11.3876 4.29622C11.4609 4.40583 11.5 4.53469 11.5 4.66652Z" fill="#373535"/>
</svg>
