<svg width="10" height="10" viewBox="0 0 10 10" fill="none" xmlns="http://www.w3.org/2000/svg">
<path d="M6.5625 3.96875L4.65167 2.05792C4.53442 1.94072 4.37542 1.87491 4.20964 1.87495C4.04387 1.87499 3.8849 1.94088 3.76771 2.05812C3.65052 2.17537 3.5847 2.33437 3.58474 2.50015C3.58478 2.66592 3.65067 2.82489 3.76792 2.94208L5.67875 4.8525C5.69815 4.87185 5.71354 4.89484 5.72405 4.92015C5.73455 4.94546 5.73996 4.9726 5.73996 5C5.73996 5.0274 5.73455 5.05454 5.72405 5.07985C5.71354 5.10516 5.69815 5.12815 5.67875 5.1475L3.76792 7.05792C3.65067 7.17511 3.58478 7.33408 3.58474 7.49985C3.5847 7.66563 3.65052 7.82463 3.76771 7.94187C3.8849 8.05912 4.04387 8.12501 4.20964 8.12505C4.37542 8.12509 4.53442 8.05928 4.65167 7.94208L6.5625 6.03125C6.83551 5.75748 6.98883 5.38663 6.98883 5C6.98883 4.61337 6.83551 4.24251 6.5625 3.96875Z" fill="#373535"/>
</svg>
