<svg width="16" height="16" viewBox="0 0 16 16" fill="none" xmlns="http://www.w3.org/2000/svg">
<path d="M11 4.3905C10.7239 4.3905 10.5 4.61436 10.5 4.8905L10.5 11.8905C10.5 12.1666 10.7239 12.3905 11 12.3905C11.2761 12.3905 11.5 12.1666 11.5 11.8905L11.5 4.8905C11.5 4.61436 11.2761 4.3905 11 4.3905Z" fill="#373535"/>
<path d="M4.5 4.66652V12.1145C4.50003 12.2464 4.53914 12.3752 4.6124 12.4848C4.68566 12.5944 4.78976 12.6799 4.91156 12.7303C5.03336 12.7808 5.16739 12.794 5.29669 12.7682C5.42599 12.7425 5.54477 12.6791 5.638 12.5859L9.362 8.86186C9.48698 8.73684 9.55719 8.5673 9.55719 8.39052C9.55719 8.21375 9.48698 8.04421 9.362 7.91919L5.638 4.19519C5.54477 4.10198 5.42599 4.03851 5.29669 4.0128C5.16739 3.98709 5.03336 4.00029 4.91156 4.05074C4.78976 4.10119 4.68565 4.18661 4.6124 4.29622C4.53914 4.40583 4.50003 4.53469 4.5 4.66652Z" fill="#373535"/>
</svg>
