<svg width="16" height="16" viewBox="0 0 16 16" fill="none" xmlns="http://www.w3.org/2000/svg">
<path d="M4.27602 11H11.724C11.8559 11 11.9847 10.9609 12.0943 10.8876C12.2039 10.8143 12.2894 10.7102 12.3398 10.5884C12.3903 10.4666 12.4035 10.3326 12.3777 10.2033C12.352 10.074 12.2886 9.95523 12.1954 9.862L8.47135 6.138C8.34634 6.01302 8.1768 5.94281 8.00002 5.94281C7.82325 5.94281 7.65371 6.01302 7.52869 6.138L3.80469 9.862C3.71148 9.95523 3.64801 10.074 3.6223 10.2033C3.59659 10.3326 3.60979 10.4666 3.66024 10.5884C3.71068 10.7102 3.79611 10.8143 3.90572 10.8876C4.01532 10.9609 4.14419 11 4.27602 11Z" fill="#373535"/>
</svg>
