<svg width="16" height="16" viewBox="0 0 16 16" fill="none" xmlns="http://www.w3.org/2000/svg">
<path d="M5.5 4.66652V12.1145C5.50003 12.2464 5.53914 12.3752 5.6124 12.4848C5.68566 12.5944 5.78976 12.6799 5.91156 12.7303C6.03336 12.7808 6.16739 12.794 6.29669 12.7682C6.42599 12.7425 6.54477 12.6791 6.638 12.5859L10.362 8.86186C10.487 8.73684 10.5572 8.5673 10.5572 8.39052C10.5572 8.21375 10.487 8.04421 10.362 7.91919L6.638 4.19519C6.54477 4.10198 6.42599 4.03851 6.29669 4.0128C6.16739 3.98709 6.03336 4.00029 5.91156 4.05074C5.78976 4.10119 5.68565 4.18661 5.6124 4.29622C5.53914 4.40583 5.50003 4.53469 5.5 4.66652Z" fill="#373535"/>
</svg>
