<svg width="12" height="12" viewBox="0 0 12 12" fill="none" xmlns="http://www.w3.org/2000/svg">
<path d="M7.57331 7.48738L5.28031 9.78038C5.13962 9.92101 4.94882 9.99999 4.74989 9.99994C4.55096 9.9999 4.36019 9.92083 4.21956 9.78013C4.07893 9.63943 3.99995 9.44863 4 9.2497C4.00005 9.05078 4.07912 8.86001 4.21981 8.71938L6.51281 6.42688C6.5361 6.40366 6.55457 6.37607 6.56717 6.3457C6.57977 6.31532 6.58626 6.28276 6.58626 6.24988C6.58626 6.217 6.57977 6.18444 6.56717 6.15406C6.55457 6.12369 6.5361 6.0961 6.51281 6.07288L4.21981 3.78038C4.07912 3.63975 4.00005 3.44899 4 3.25006C3.99995 3.05113 4.07893 2.86033 4.21956 2.71963C4.36019 2.57893 4.55096 2.49986 4.74989 2.49982C4.94882 2.49977 5.13962 2.57875 5.28031 2.71938L7.57331 5.01238C7.90093 5.3409 8.08491 5.78592 8.08491 6.24988C8.08491 6.71384 7.90093 7.15886 7.57331 7.48738Z" fill="white"/>
</svg>
