<svg width="9" height="10" viewBox="0 0 9 10" fill="none" xmlns="http://www.w3.org/2000/svg">
<path d="M3.88443 5.67996L2.16468 3.96021C2.05921 3.85469 1.99998 3.71159 2.00001 3.56239C2.00005 3.4132 2.05935 3.27012 2.16487 3.16465C2.27039 3.05918 2.41349 2.99994 2.56269 2.99998C2.71189 3.00001 2.85496 3.05931 2.96043 3.16484L4.67981 4.88459C4.69723 4.90205 4.71792 4.9159 4.7407 4.92535C4.76348 4.93481 4.7879 4.93967 4.81256 4.93967C4.83722 4.93967 4.86164 4.93481 4.88442 4.92535C4.9072 4.9159 4.92789 4.90205 4.94531 4.88459L6.66468 3.16484C6.77016 3.05931 6.91323 3.00001 7.06243 2.99998C7.21162 2.99994 7.35472 3.05918 7.46025 3.16465C7.56577 3.27012 7.62507 3.4132 7.62511 3.56239C7.62514 3.71159 7.56591 3.85469 7.46043 3.96021L5.74068 5.67996C5.4943 5.92567 5.16053 6.06366 4.81256 6.06366C4.46459 6.06366 4.13082 5.92567 3.88443 5.67996Z" fill="white"/>
</svg>
