<svg width="16" height="16" viewBox="0 0 16 16" fill="none" xmlns="http://www.w3.org/2000/svg">
<rect x="4" y="11" width="8" height="1" rx="0.5" fill="#373535"/>
<path d="M4.27602 5H11.724C11.8559 5.00003 11.9847 5.03914 12.0943 5.1124C12.2039 5.18565 12.2894 5.28976 12.3398 5.41156C12.3903 5.53336 12.4035 5.66739 12.3777 5.79669C12.352 5.92599 12.2886 6.04477 12.1954 6.138L8.47135 9.862C8.34634 9.98698 8.1768 10.0572 8.00002 10.0572C7.82325 10.0572 7.65371 9.98698 7.52869 9.862L3.80469 6.138C3.71148 6.04477 3.64801 5.92599 3.6223 5.79669C3.59659 5.66739 3.60979 5.53336 3.66024 5.41156C3.71068 5.28976 3.79611 5.18565 3.90572 5.1124C4.01532 5.03914 4.14419 5.00003 4.27602 5Z" fill="#373535"/>
</svg>
