<svg width="16" height="16" viewBox="0 0 16 16" fill="none" xmlns="http://www.w3.org/2000/svg">
<path d="M4.27599 6H11.724C11.8558 6.00003 11.9847 6.03914 12.0943 6.1124C12.2039 6.18565 12.2893 6.28976 12.3398 6.41156C12.3902 6.53336 12.4034 6.66739 12.3777 6.79669C12.352 6.92599 12.2885 7.04477 12.1953 7.138L8.47132 10.862C8.34631 10.987 8.17677 11.0572 7.99999 11.0572C7.82322 11.0572 7.65368 10.987 7.52866 10.862L3.80466 7.138C3.71145 7.04477 3.64798 6.92599 3.62227 6.79669C3.59656 6.66739 3.60976 6.53336 3.66021 6.41156C3.71065 6.28976 3.79608 6.18565 3.90569 6.1124C4.01529 6.03914 4.14416 6.00003 4.27599 6Z" fill="#373535"/>
</svg>
