<svg width="12" height="12" viewBox="0 0 12 12" fill="none" xmlns="http://www.w3.org/2000/svg">
<path d="M4.51254 7.5733L2.21954 5.2803C2.07891 5.1396 1.99993 4.9488 1.99998 4.74987C2.00002 4.55094 2.07909 4.36018 2.21979 4.21955C2.36049 4.07892 2.55129 3.99994 2.75022 3.99998C2.94915 4.00003 3.13991 4.0791 3.28054 4.2198L5.57304 6.5128C5.59626 6.53608 5.62385 6.55455 5.65422 6.56715C5.6846 6.57976 5.71716 6.58625 5.75004 6.58625C5.78292 6.58625 5.81548 6.57976 5.84586 6.56715C5.87623 6.55455 5.90382 6.53608 5.92704 6.5128L8.21954 4.2198C8.36017 4.0791 8.55093 4.00003 8.74986 3.99998C8.94879 3.99994 9.13959 4.07892 9.28029 4.21955C9.42099 4.36018 9.50006 4.55094 9.5001 4.74987C9.50015 4.9488 9.42117 5.1396 9.28054 5.2803L6.98754 7.5733C6.65902 7.90091 6.214 8.08489 5.75004 8.08489C5.28608 8.08489 4.84106 7.90091 4.51254 7.5733Z" fill="white"/>
</svg>
