<svg width="16" height="16" viewBox="0 0 16 16" fill="none" xmlns="http://www.w3.org/2000/svg">
<path d="M9.41401 8L12 5.41133C12.1679 5.22051 12.2568 4.97291 12.2487 4.71886C12.2406 4.46482 12.1361 4.22339 11.9563 4.04367C11.7766 3.86394 11.5352 3.75939 11.2811 3.75128C11.0271 3.74317 10.7795 3.8321 10.5887 4L8.00001 6.586L5.40667 3.992C5.31378 3.89911 5.20351 3.82543 5.08214 3.77516C4.96078 3.72489 4.8307 3.69901 4.69934 3.69901C4.56797 3.69901 4.4379 3.72489 4.31653 3.77516C4.19517 3.82543 4.08489 3.89911 3.99201 3.992C3.89912 4.08489 3.82543 4.19516 3.77516 4.31653C3.72489 4.43789 3.69902 4.56797 3.69902 4.69933C3.69902 4.8307 3.72489 4.96077 3.77516 5.08214C3.82543 5.2035 3.89912 5.31378 3.99201 5.40667L6.58601 8L4.00001 10.588C3.89859 10.6787 3.81673 10.7891 3.75945 10.9124C3.70216 11.0358 3.67066 11.1696 3.66685 11.3056C3.66304 11.4416 3.68702 11.5769 3.73732 11.7033C3.78761 11.8297 3.86316 11.9445 3.95935 12.0407C4.05554 12.1368 4.17034 12.2124 4.29674 12.2627C4.42313 12.313 4.55845 12.337 4.69443 12.3332C4.83041 12.3294 4.96418 12.2978 5.08757 12.2406C5.21095 12.1833 5.32135 12.1014 5.41201 12L8.00001 9.414L10.5853 12C10.7729 12.1876 11.0274 12.293 11.2927 12.293C11.558 12.293 11.8124 12.1876 12 12C12.1876 11.8124 12.293 11.558 12.293 11.2927C12.293 11.0274 12.1876 10.7729 12 10.5853L9.41401 8Z" fill="#373535"/>
</svg>
