<svg width="160" height="160" viewBox="0 0 160 160" fill="none" xmlns="http://www.w3.org/2000/svg">
<g clip-path="url(#clip0_670_680)">
<path d="M157.459 49.0003H147.481C145.003 49.5045 144.446 50.8952 143.709 52.4946C143.426 53.1552 130.001 83.7605 127.464 89.5408C124.926 83.7518 111.501 53.1552 111.219 52.4946C110.49 50.8952 109.933 49.5045 107.455 49.0003H97.4766C95.5477 48.9742 94.5276 50.5475 95.0848 52.4946C95.7621 54.5633 118.84 106.491 118.84 106.491C120.297 110.089 124.532 110.089 124.532 110.089H127.069H127.884H130.421C130.421 110.089 134.648 110.089 136.114 106.491C136.114 106.491 159.183 54.5633 159.868 52.4946C160.408 50.5475 159.388 48.9829 157.459 49.0003Z" fill="#FF4343"/>
<path d="M115.197 106.602C114.519 104.533 91.4417 52.6061 91.4417 52.6061C89.9844 49.0075 85.7495 49.0075 85.7495 49.0075H83.212H82.3976H79.8601C79.8601 49.0075 75.6337 49.0075 74.1678 52.6061C74.1678 52.6061 64.6607 74.0063 57.674 89.8783C50.6873 74.0063 41.1803 52.6148 41.1803 52.6148C39.7229 49.0162 35.488 49.0162 35.488 49.0162H32.9505H32.1361H29.5986C29.5986 49.0162 25.3723 49.0162 23.9064 52.6148C23.9064 52.6148 0.837354 104.542 0.151542 106.611C-0.40568 108.558 0.614466 110.122 2.54331 110.105H12.5219C14.9994 109.601 15.5566 108.21 16.2853 106.611C16.5853 105.95 30.0101 75.3449 32.5476 69.5646C35.0851 75.3536 48.5099 105.95 48.7928 106.611C49.3929 107.923 49.8901 109.088 51.4246 109.749C51.6903 109.905 51.9989 110.001 52.3504 110.053C52.4276 110.07 52.4876 110.096 52.5647 110.114H62.5433C62.5947 110.114 62.6376 110.105 62.689 110.096H62.7919C62.809 110.096 62.8262 110.088 62.8519 110.079C63.3234 110.036 63.7263 109.905 64.0607 109.679C65.4923 109.019 65.9809 107.88 66.5639 106.602C66.8468 105.941 80.2715 75.3362 82.809 69.5559C85.3465 75.3449 98.7713 105.941 99.0542 106.602C99.7829 108.201 100.34 109.592 102.826 110.096H112.805C114.734 110.114 115.754 108.54 115.197 106.602Z" fill="#FF4343"/>
</g>
<defs>
<clipPath id="clip0_670_680">
<rect width="160" height="160" fill="white"/>
</clipPath>
</defs>
</svg>
