<svg width="16" height="16" viewBox="0 0 16 16" fill="none" xmlns="http://www.w3.org/2000/svg">
<g clip-path="url(#clip0_670_617)">
<path d="M8 0C6.04314 0.00575273 4.15585 0.726525 2.69333 2.02667L1.80467 1.138C1.71143 1.04479 1.59266 0.981323 1.46335 0.955611C1.33405 0.929899 1.20003 0.943101 1.07823 0.993548C0.956429 1.04399 0.852321 1.12942 0.779065 1.23903C0.705808 1.34863 0.666694 1.4775 0.666666 1.60933V4.66667C0.666666 4.84348 0.736903 5.01305 0.861928 5.13807C0.986952 5.2631 1.15652 5.33333 1.33333 5.33333H4.39067C4.5225 5.33331 4.65136 5.29419 4.76097 5.22093C4.87058 5.14768 4.956 5.04357 5.00645 4.92177C5.0569 4.79997 5.0701 4.66595 5.04439 4.53665C5.01868 4.40734 4.95521 4.28857 4.862 4.19533L4.10533 3.43867C4.98833 2.68436 6.07126 2.20251 7.22273 2.05159C8.37421 1.90067 9.54473 2.08715 10.5923 2.58842C11.6399 3.08969 12.5195 3.8842 13.1243 4.87555C13.7292 5.8669 14.0334 7.01249 14 8.17333C13.9571 9.67324 13.3538 11.1026 12.309 12.1796C11.2642 13.2566 9.85372 13.9031 8.3558 13.9914C6.85789 14.0798 5.38123 13.6037 4.21703 12.657C3.05283 11.7103 2.28561 10.3618 2.06667 8.87733C2.0354 8.63597 1.91775 8.4141 1.73549 8.2528C1.55324 8.0915 1.31871 8.00169 1.07533 8C0.934108 7.99818 0.794122 8.02651 0.664723 8.08311C0.535324 8.13971 0.419492 8.22327 0.324965 8.32821C0.230438 8.43315 0.159392 8.55705 0.116574 8.69164C0.0737551 8.82622 0.0601494 8.9684 0.0766656 9.10867C0.35414 11.0726 1.35026 12.8639 2.87226 14.1358C4.39427 15.4077 6.33396 16.0698 8.316 15.994C10.3212 15.8974 12.2184 15.0575 13.638 13.638C15.0575 12.2184 15.8974 10.3212 15.994 8.316C16.0353 7.23995 15.8592 6.16661 15.4762 5.16018C15.0932 4.15374 14.5112 3.23489 13.7649 2.45856C13.0186 1.68223 12.1235 1.06438 11.1329 0.641946C10.1424 0.219513 9.07685 0.00117886 8 0Z" fill="#373535"/>
</g>
<defs>
<clipPath id="clip0_670_617">
<rect width="16" height="16" fill="white"/>
</clipPath>
</defs>
</svg>
