<svg width="16" height="16" viewBox="0 0 16 16" fill="none" xmlns="http://www.w3.org/2000/svg">
<g clip-path="url(#clip0_670_653)">
<path d="M12.3333 0H3.66667C2.69453 0.00105878 1.76252 0.387707 1.07511 1.07511C0.387707 1.76252 0.00105878 2.69453 0 3.66667L0 9.66667C0 11.6887 1.64533 13.3333 3.66667 13.3333H4.49333L6.89333 15.354C7.20091 15.6271 7.59803 15.7777 8.00933 15.7773C8.39733 15.7773 8.78133 15.6427 9.08 15.3773L11.552 13.3333H12.3333C14.3547 13.3333 16 11.6887 16 9.66667V3.66667C16 1.64467 14.3547 0 12.3333 0ZM14 9.66667C14 10.5853 13.2527 11.3333 12.3333 11.3333H11.192C10.9593 11.3333 10.734 11.4147 10.5547 11.5627L8.00267 13.674L5.50333 11.5687C5.3229 11.4167 5.09458 11.3333 4.85867 11.3333H3.66667C3.2248 11.3328 2.80119 11.157 2.48874 10.8446C2.17629 10.5321 2.00053 10.1085 2 9.66667V3.66667C2 2.748 2.74733 2 3.66667 2H12.3333C13.2527 2 14 2.748 14 3.66667V9.66667ZM9 7C8.99991 7.26531 8.89444 7.51971 8.70677 7.70725C8.51911 7.89478 8.26464 8.00009 7.99933 8C7.73403 7.99991 7.47962 7.89444 7.29209 7.70677C7.10455 7.51911 6.99924 7.26464 6.99933 6.99933C6.99942 6.73403 7.1049 6.47962 7.29256 6.29209C7.48022 6.10455 7.7347 5.99924 8 5.99933C8.26531 5.99942 8.51971 6.1049 8.70725 6.29256C8.89478 6.48022 9.00009 6.7347 9 7ZM12.3333 7C12.3333 7.13137 12.3074 7.26144 12.2571 7.38279C12.2067 7.50414 12.133 7.61439 12.0401 7.70725C11.9472 7.8001 11.8369 7.87375 11.7155 7.92398C11.5941 7.97421 11.464 8.00004 11.3327 8C11.2013 7.99996 11.0712 7.97404 10.9499 7.92373C10.8285 7.87341 10.7183 7.79969 10.6254 7.70677C10.5326 7.61385 10.4589 7.50355 10.4087 7.38217C10.3585 7.26079 10.3326 7.1307 10.3327 6.99933C10.3328 6.73403 10.4382 6.47962 10.6259 6.29209C10.8136 6.10455 11.068 5.99924 11.3333 5.99933C11.5986 5.99942 11.853 6.1049 12.0406 6.29256C12.2281 6.48022 12.3334 6.7347 12.3333 7ZM5.66667 7C5.66658 7.26531 5.5611 7.51971 5.37344 7.70725C5.18578 7.89478 4.93131 8.00009 4.666 8C4.4007 7.99991 4.14629 7.89444 3.95876 7.70677C3.77122 7.51911 3.66591 7.26464 3.666 6.99933C3.66609 6.73403 3.77157 6.47962 3.95923 6.29209C4.14689 6.10455 4.40136 5.99924 4.66667 5.99933C4.93197 5.99942 5.18638 6.1049 5.37391 6.29256C5.56145 6.48022 5.66676 6.7347 5.66667 7Z" fill="#373535"/>
</g>
<defs>
<clipPath id="clip0_670_653">
<rect width="16" height="16" fill="white"/>
</clipPath>
</defs>
</svg>
