<svg width="16" height="16" viewBox="0 0 16 16" fill="none" xmlns="http://www.w3.org/2000/svg">
<g clip-path="url(#clip0_670_650)">
<path d="M9 7V9.66667C9 9.93188 8.89464 10.1862 8.7071 10.3738C8.51957 10.5613 8.26521 10.6667 8 10.6667C7.73478 10.6667 7.48042 10.5613 7.29289 10.3738C7.10535 10.1862 7 9.93188 7 9.66667V7C7 6.73478 7.10535 6.48043 7.29289 6.29289C7.48042 6.10536 7.73478 6 8 6C8.26521 6 8.51957 6.10536 8.7071 6.29289C8.89464 6.48043 9 6.73478 9 7ZM8 11.3333C7.86863 11.3334 7.73856 11.3593 7.61721 11.4096C7.49586 11.4599 7.38561 11.5336 7.29275 11.6266C7.19989 11.7195 7.12624 11.8298 7.07601 11.9512C7.02578 12.0725 6.99995 12.2026 7 12.334C7.00004 12.4654 7.02596 12.5954 7.07627 12.7168C7.12658 12.8381 7.2003 12.9484 7.29322 13.0412C7.38614 13.1341 7.49644 13.2078 7.61783 13.258C7.73921 13.3082 7.8693 13.334 8.00066 13.334C8.26597 13.3339 8.52037 13.2284 8.70791 13.0408C8.89544 12.8531 9.00075 12.5986 9.00066 12.3333C9.00057 12.068 8.8951 11.8136 8.70744 11.6261C8.51977 11.4386 8.2653 11.3332 8 11.3333ZM14.6667 5.438V12.3333C14.6667 14.3553 13.022 16 11 16H5C4.02786 15.9989 3.09584 15.6123 2.40844 14.9249C1.72104 14.2375 1.33439 13.3055 1.33333 12.3333V3.66667C1.33333 1.64467 2.97799 0 5 0H9.22866C10.208 0 11.1287 0.381333 11.8213 1.074L13.5927 2.84533C13.9343 3.18497 14.2051 3.58901 14.3895 4.03405C14.5738 4.47909 14.668 4.95629 14.6667 5.438ZM12.6667 12.3333V6H10C9.64637 6 9.30723 5.85952 9.05719 5.60948C8.80714 5.35943 8.66666 5.02029 8.66666 4.66667V2H5C4.55813 2.00053 4.13451 2.17629 3.82207 2.48874C3.50962 2.80119 3.33386 3.2248 3.33333 3.66667V12.3333C3.33333 13.252 4.08133 14 5 14H11C11.9187 14 12.6667 13.252 12.6667 12.3333Z" fill="#373535"/>
</g>
<defs>
<clipPath id="clip0_670_650">
<rect width="16" height="16" fill="white"/>
</clipPath>
</defs>
</svg>
