<svg width="16" height="16" viewBox="0 0 16 16" fill="none" xmlns="http://www.w3.org/2000/svg">
<g clip-path="url(#clip0_670_623)">
<path d="M11.3333 10.3333C11.3333 10.5986 11.228 10.8529 11.0404 11.0404C10.8529 11.228 10.5986 11.3333 10.3333 11.3333H5.66667C5.40145 11.3333 5.1471 11.228 4.95956 11.0404C4.77202 10.8529 4.66667 10.5986 4.66667 10.3333C4.66667 10.0681 4.77202 9.81376 4.95956 9.62623C5.1471 9.43869 5.40145 9.33333 5.66667 9.33333H10.3333C10.5986 9.33333 10.8529 9.43869 11.0404 9.62623C11.228 9.81376 11.3333 10.0681 11.3333 10.3333ZM16 5V12.3333C16 14.3553 14.3553 16 12.3333 16H3.66667C2.69453 15.9989 1.76252 15.6123 1.07511 14.9249C0.387707 14.2375 0.00105878 13.3055 0 12.3333L0 5C0 2.978 1.64467 1.33333 3.66667 1.33333H4V1C4 0.734784 4.10536 0.48043 4.29289 0.292893C4.48043 0.105357 4.73478 0 5 0C5.26522 0 5.51957 0.105357 5.70711 0.292893C5.89464 0.48043 6 0.734784 6 1V1.33333H10V1C10 0.734784 10.1054 0.48043 10.2929 0.292893C10.4804 0.105357 10.7348 0 11 0C11.2652 0 11.5196 0.105357 11.7071 0.292893C11.8946 0.48043 12 0.734784 12 1V1.33333H12.3333C14.3553 1.33333 16 2.978 16 5ZM14 12.3333V6H2V12.3333C2 13.252 2.748 14 3.66667 14H12.3333C13.252 14 14 13.252 14 12.3333Z" fill="#6F6D6D"/>
</g>
<defs>
<clipPath id="clip0_670_623">
<rect width="16" height="16" fill="white"/>
</clipPath>
</defs>
</svg>
