<svg width="16" height="16" viewBox="0 0 16 16" fill="none" xmlns="http://www.w3.org/2000/svg">
<g clip-path="url(#clip0_670_659)">
<path d="M15.3333 3C15.3333 2.44772 14.8856 2 14.3333 2H11.816C11.3947 0.804906 10.2672 0.0040625 9 0H7C5.73284 0.0040625 4.60525 0.804906 4.184 2H1.66666C1.11438 2 0.666656 2.44772 0.666656 3C0.666656 3.55228 1.11438 4 1.66666 4H2V12.3333C2 14.3584 3.64163 16 5.66666 16H10.3333C12.3584 16 14 14.3584 14 12.3333V4H14.3333C14.8856 4 15.3333 3.55228 15.3333 3ZM12 12.3333C12 13.2538 11.2538 14 10.3333 14H5.66666C4.74619 14 4 13.2538 4 12.3333V4H12V12.3333Z" fill="#373535"/>
<path d="M6.33334 12C6.88562 12 7.33334 11.5523 7.33334 11V7C7.33334 6.44772 6.88562 6 6.33334 6C5.78106 6 5.33334 6.44772 5.33334 7V11C5.33334 11.5523 5.78106 12 6.33334 12ZM9.66666 12C10.2189 12 10.6667 11.5523 10.6667 11V7C10.6667 6.44772 10.2189 6 9.66666 6C9.11437 6 8.66666 6.44772 8.66666 7V11C8.66666 11.5523 9.11437 12 9.66666 12Z" fill="#373535"/>
</g>
<defs>
<clipPath id="clip0_670_659">
<rect width="16" height="16" fill="white"/>
</clipPath>
</defs>
</svg>
