<svg width="16" height="16" viewBox="0 0 16 16" fill="none" xmlns="http://www.w3.org/2000/svg">
<path d="M9.64574 3.33742L1.94276 11.041C1.90397 11.0799 1.87633 11.1285 1.86271 11.1817L1.00888 14.6087C0.996325 14.6595 0.997094 14.7128 1.01112 14.7632C1.02514 14.8137 1.05194 14.8597 1.08893 14.8968C1.14575 14.9534 1.22268 14.9853 1.3029 14.9853C1.32765 14.9853 1.3523 14.9823 1.3763 14.9762L4.8033 14.1223C4.85659 14.1089 4.90523 14.0813 4.94402 14.0424L12.6477 6.33932L9.64574 3.33742ZM14.5561 2.28704L13.6986 1.4296C13.1255 0.856515 12.1267 0.857084 11.5542 1.4296L10.5039 2.47998L13.5057 5.48177L14.5561 4.43142C14.8423 4.14528 15 3.76439 15 3.3593C15 2.95422 14.8423 2.57333 14.5561 2.28704Z" fill="#373535"/>
</svg>
