<svg width="16" height="16" viewBox="0 0 16 16" fill="none" xmlns="http://www.w3.org/2000/svg">
<g clip-path="url(#clip0_670_666)">
<path d="M16 5.436V11.436C16 13.4573 14.3553 15.1027 12.3333 15.1027H11.6667C10.352 15.08 10.3527 13.1247 11.6667 13.1027H12.3333C13.252 13.1027 14 12.3553 14 11.436V5.436C14 5.322 13.988 5.21 13.966 5.10266H2V11.436C2 12.3553 2.748 13.1027 3.66667 13.1027H4.33333C5.648 13.1253 5.64733 15.0807 4.33333 15.1027H3.66667C2.69459 15.1014 1.76267 14.7147 1.07531 14.0274C0.38794 13.34 0.00123484 12.4081 0 11.436L0 4.10266C0 2.08133 1.64533 0.435997 3.66667 0.435997H5.352C5.71267 0.435997 6.07333 0.52133 6.39533 0.681997L8.49867 1.73333C8.5449 1.75696 8.59608 1.76929 8.648 1.76933H12.3333C14.3553 1.76933 16 3.41466 16 5.436ZM10.5807 9.29733L8.472 7.18866C8.41014 7.1267 8.33667 7.07754 8.2558 7.044C8.17492 7.01046 8.08822 6.9932 8.00067 6.9932C7.91311 6.9932 7.82641 7.01046 7.74554 7.044C7.66466 7.07754 7.59119 7.1267 7.52933 7.18866L5.42067 9.29733C5.00067 9.71733 5.298 10.4353 5.892 10.4353H7.00067V14.1027C7.02333 15.4173 8.97867 15.4167 9.00067 14.1027V10.4353H10.11C10.704 10.4353 11.0007 9.71733 10.5807 9.29733Z" fill="#373535"/>
</g>
<defs>
<clipPath id="clip0_670_666">
<rect width="16" height="16" fill="white"/>
</clipPath>
</defs>
</svg>
