<svg width="16" height="16" viewBox="0 0 16 16" fill="none" xmlns="http://www.w3.org/2000/svg">
<g clip-path="url(#clip0_670_663)">
<path d="M12.3333 2H8.328C8.27417 1.99975 8.22116 1.98672 8.17334 1.962L6.21 0.933343C5.87569 0.758339 5.504 0.666849 5.12666 0.666687H3.66666C1.64253 0.668875 0.00221875 2.30922 0 4.33334V11.6667C0.00221875 13.6908 1.64253 15.3312 3.66666 15.3333H12.3333C14.3574 15.3311 15.9978 13.6908 16 11.6667V5.66669C15.9978 3.64253 14.3575 2.00222 12.3333 2ZM14 11.6667C14 12.5871 13.2538 13.3333 12.3333 13.3333H3.66666C2.74619 13.3333 2 12.5872 2 11.6667V5.31134H13.96C13.9862 5.42798 13.9996 5.54714 14 5.66669V11.6667Z" fill="#373535"/>
</g>
<defs>
<clipPath id="clip0_670_663">
<rect width="16" height="16" fill="white"/>
</clipPath>
</defs>
</svg>
