<svg width="16" height="16" viewBox="0 0 16 16" fill="none" xmlns="http://www.w3.org/2000/svg">
<g clip-path="url(#clip0_670_626)">
<path d="M15.7073 14.2968L12.6106 11.1987C14.9277 8.10223 14.2959 3.71357 11.1994 1.39642C8.10289 -0.920728 3.71422 -0.288918 1.39708 2.8076C-0.920072 5.90411 -0.288261 10.2928 2.80825 12.6099C5.29563 14.4713 8.71199 14.4713 11.1994 12.6099L14.2975 15.708C14.6868 16.0973 15.318 16.0973 15.7073 15.708C16.0966 15.3187 16.0966 14.6875 15.7073 14.2982L15.7073 14.2968ZM7.02965 12.012C4.27761 12.012 2.04667 9.78103 2.04667 7.02899C2.04667 4.27695 4.27761 2.04601 7.02965 2.04601C9.78168 2.04601 12.0126 4.27695 12.0126 7.02899C12.0097 9.77978 9.78047 12.009 7.02965 12.012Z" fill="#6F6D6D"/>
</g>
<defs>
<clipPath id="clip0_670_626">
<rect width="16" height="16" fill="white"/>
</clipPath>
</defs>
</svg>
