<svg width="16" height="16" viewBox="0 0 16 16" fill="none" xmlns="http://www.w3.org/2000/svg">
<g clip-path="url(#clip0_670_656)">
<path d="M13 0H8.33333C7.53795 0.000882284 6.77541 0.317236 6.21299 0.879654C5.65057 1.44207 5.33422 2.20462 5.33333 3V7.66667C5.33333 9.32067 6.67933 10.6667 8.33333 10.6667H13C14.654 10.6667 16 9.32067 16 7.66667V3C16 1.346 14.654 0 13 0ZM14 7.66667C14 8.218 13.5513 8.66667 13 8.66667H8.33333C7.782 8.66667 7.33333 8.218 7.33333 7.66667V3C7.33333 2.44867 7.782 2 8.33333 2H13C13.5513 2 14 2.44867 14 3V7.66667ZM10.6667 13C10.6667 14.654 9.32067 16 7.66667 16H3C2.20462 15.9991 1.44207 15.6828 0.879654 15.1203C0.317236 14.5579 0.000882284 13.7954 0 13L0 8.33333C0 6.67933 1.346 5.33333 3 5.33333C3.26522 5.33333 3.51957 5.43869 3.70711 5.62623C3.89464 5.81376 4 6.06812 4 6.33333C4 6.59855 3.89464 6.8529 3.70711 7.04044C3.51957 7.22798 3.26522 7.33333 3 7.33333C2.448 7.33333 2 7.782 2 8.33333V13C2 13.5513 2.44867 14 3 14H7.66667C8.218 14 8.66667 13.5513 8.66667 13C8.67612 12.7411 8.78562 12.496 8.97212 12.3161C9.15862 12.1363 9.4076 12.0359 9.66667 12.0359C9.92574 12.0359 10.1747 12.1363 10.3612 12.3161C10.5477 12.496 10.6572 12.7411 10.6667 13Z" fill="#373535"/>
</g>
<defs>
<clipPath id="clip0_670_656">
<rect width="16" height="16" fill="white"/>
</clipPath>
</defs>
</svg>
