<svg width="64" height="25" viewBox="0 0 64 25" fill="none" xmlns="http://www.w3.org/2000/svg">
<g clip-path="url(#clip0_670_672)">
<path d="M62.9816 0.00695612H58.9901C57.9991 0.208615 57.7763 0.764917 57.4814 1.40466C57.3682 1.66891 51.9983 13.911 50.9833 16.2231C49.9683 13.9075 44.5984 1.66891 44.4852 1.40466C44.1937 0.764917 43.9709 0.208615 42.9799 0.00695612H38.9884C38.2169 -0.00347452 37.8088 0.625841 38.0317 1.40466C38.3026 2.23216 47.5336 23.0031 47.5336 23.0031C48.1166 24.4425 49.8105 24.4425 49.8105 24.4425H50.8255H51.1513H52.1663C52.1663 24.4425 53.8568 24.4425 54.4432 23.0031C54.4432 23.0031 63.6708 2.23216 63.9451 1.40466C64.1612 0.625841 63.7531 2.35863e-06 62.9816 0.00695612Z" fill="#FF4343"/>
<path d="M46.0764 23.0477C45.8055 22.2202 36.5745 1.44927 36.5745 1.44927C35.9915 0.00984192 34.2976 0.00984192 34.2976 0.00984192H33.2826H32.9568H31.9418C31.9418 0.00984192 30.2513 0.00984192 29.6649 1.44927C29.6649 1.44927 25.8621 10.0094 23.0674 16.3581C20.2727 10.0094 16.4699 1.45275 16.4699 1.45275C15.8869 0.0133187 14.193 0.0133188 14.193 0.0133188H13.178H12.8522H11.8372C11.8372 0.0133188 10.1467 0.0133187 9.56032 1.45275C9.56032 1.45275 0.332714 22.2236 0.0583891 23.0511C-0.1645 23.83 0.243558 24.4558 1.0151 24.4488H5.00652C5.99752 24.2472 6.22041 23.6909 6.51188 23.0511C6.6319 22.7869 12.0018 10.5448 13.0168 8.23267C14.0318 10.5483 19.4017 22.7869 19.5149 23.0511C19.7549 23.5762 19.9538 24.0421 20.5676 24.3063C20.6739 24.3689 20.7973 24.4071 20.9379 24.428C20.9688 24.4349 20.9928 24.4454 21.0237 24.4523H25.0151C25.0357 24.4523 25.0528 24.4488 25.0734 24.4454H25.1145C25.1214 24.4454 25.1283 24.4419 25.1385 24.4384C25.3271 24.421 25.4883 24.3689 25.622 24.2785C26.1947 24.0142 26.3901 23.5588 26.6233 23.0477C26.7365 22.7834 32.1064 10.5413 33.1214 8.22919C34.1364 10.5448 39.5063 22.7834 39.6195 23.0477C39.9109 23.6874 40.1338 24.2437 41.1282 24.4454H45.1197C45.8912 24.4523 46.2993 23.823 46.0764 23.0477Z" fill="#FF4343"/>
</g>
<defs>
<clipPath id="clip0_670_672">
<rect width="64" height="24.4494" fill="white"/>
</clipPath>
</defs>
</svg>
