<svg width="16" height="16" viewBox="0 0 16 16" fill="none" xmlns="http://www.w3.org/2000/svg">
<g clip-path="url(#clip0_670_629)">
<path d="M2.05756 7.12272C2.54032 3.84204 5.59118 1.57389 8.87186 2.05665C9.99117 2.22136 11.0412 2.69896 11.9009 3.43442L11.1269 4.20834C10.8675 4.4678 10.8676 4.88844 11.1271 5.14784C11.2516 5.27235 11.4205 5.34231 11.5966 5.34234H14.6432C15.0101 5.34234 15.3075 5.04492 15.3075 4.67803V1.63143C15.3074 1.26454 15.01 0.967182 14.6431 0.967245C14.467 0.967281 14.2981 1.03724 14.1735 1.16175L13.3099 2.02536C10.0165 -0.910382 4.96676 -0.620467 2.03102 2.67292C0.990971 3.83965 0.316042 5.28585 0.0898399 6.8324C0.000654479 7.38068 0.37281 7.89745 0.921064 7.98664C0.970452 7.99467 1.02034 7.999 1.07038 7.99963C1.57199 7.99421 1.99303 7.62018 2.05756 7.12272ZM14.9295 7.99963C14.4279 8.00504 14.0068 8.37907 13.9423 8.87653C13.4596 12.1572 10.4087 14.4254 7.12801 13.9426C6.0087 13.7779 4.95871 13.3003 4.09901 12.5649L4.87294 11.7909C5.13233 11.5315 5.13227 11.1108 4.87278 10.8514C4.74824 10.7269 4.57935 10.657 4.40325 10.6569H1.35671C0.989822 10.6569 0.692402 10.9544 0.692402 11.3213V14.3679C0.692495 14.7347 0.989977 15.0321 1.35687 15.032C1.53297 15.032 1.70186 14.962 1.8264 14.8375L2.69001 13.9739C5.98262 16.91 11.032 16.621 13.968 13.3283C15.0087 12.1614 15.6839 10.7146 15.91 9.16754C15.9996 8.61931 15.6278 8.1023 15.0796 8.01274C15.03 8.0046 14.9798 8.00022 14.9295 7.99963Z" fill="#373535"/>
</g>
<defs>
<clipPath id="clip0_670_629">
<rect width="16" height="16" fill="white"/>
</clipPath>
</defs>
</svg>
